<?xml version="1.0" encoding="UTF-8"?>
<svg id="Camada_1" data-name="Camada 1" xmlns="http://www.w3.org/2000/svg" viewBox="0 0 392.84 500">
  <defs>
    <style>
      .cls-1 {
        fill: #ec661b;
      }
    </style>
  </defs>
  <g>
    <path class="cls-1" d="M58.34,451.06h-7.09v16.85h-11.43v-46.93h18.52c11.5,0,17.25,6.48,17.25,15.11,0,7.76-5.28,14.98-17.25,14.98ZM57.47,441.97c4.55,0,6.48-2.27,6.48-5.88s-1.94-5.88-6.48-5.88h-6.22v11.77h6.22Z"/>
    <path class="cls-1" d="M103.74,468.38c-13.3,0-24.13-9.96-24.13-24.07s10.83-24,24.13-24,24,9.89,24,24-10.7,24.07-24,24.07ZM103.74,457.95c7.49,0,12.37-5.42,12.37-13.64s-4.88-13.64-12.37-13.64-12.44,5.28-12.44,13.64,4.81,13.64,12.44,13.64Z"/>
    <path class="cls-1" d="M176.28,444.44c0,13.91-9.63,23.47-24.6,23.47h-17.58v-46.93h17.58c14.98,0,24.6,9.49,24.6,23.47ZM150.94,458.01c8.62,0,13.7-4.95,13.7-13.57s-5.08-13.71-13.7-13.71h-5.42v27.28h5.42Z"/>
    <path class="cls-1" d="M204.36,420.44c11.17,0,19.59,6.28,22.26,16.45h-12.57c-1.94-4.01-5.48-6.02-9.83-6.02-7.02,0-11.83,5.21-11.83,13.5s4.81,13.5,11.83,13.5c4.35,0,7.89-2.01,9.83-6.02h12.57c-2.67,10.16-11.1,16.38-22.26,16.38-13.84,0-23.6-9.83-23.6-23.87s9.76-23.93,23.6-23.93Z"/>
    <path class="cls-1" d="M262.86,459.62h-17.52l-2.81,8.29h-11.97l16.98-46.93h13.24l16.98,46.93h-12.1l-2.81-8.29ZM254.1,433.61l-5.75,17.18h11.57l-5.82-17.18Z"/>
    <path class="cls-1" d="M299.9,468.38c-10.1,0-17.98-5.01-18.32-14.51h12.17c.33,3.61,2.61,5.35,5.82,5.35s5.48-1.67,5.48-4.41c0-8.69-23.47-4.01-23.33-20.66,0-8.89,7.29-13.84,17.11-13.84s17.11,5.08,17.58,14.04h-12.37c-.2-3.01-2.34-4.81-5.42-4.88-2.74-.07-4.81,1.34-4.81,4.28,0,8.16,23.2,4.48,23.2,20.19,0,7.89-6.15,14.44-17.11,14.44Z"/>
    <path class="cls-1" d="M321.5,420.98h36.3v9.16h-12.43v37.77h-11.43v-37.77h-12.43v-9.16Z"/>
  </g>
  <path class="cls-1" d="M35.04,86.93c0-30.9,21.52-55.3,55-55.3s54.52,24.4,54.52,55.3-21.52,54.21-54.52,54.21-55-23.85-55-54.21Z"/>
  <path class="cls-1" d="M249.78,302.78c0-35.72-19.78-56.61-50.56-56.61s-51.67,20.88-51.67,56.61v101.55H39.83v-244.45h107.73v43.97c18.14-26.38,50.56-46.72,93.98-46.72,71.46,0,115.98,50.57,115.98,131.36v115.84h-107.73v-101.55Z"/>
</svg>