<?xml version="1.0" encoding="UTF-8"?>
<svg id="Camada_1" data-name="Camada 1" xmlns="http://www.w3.org/2000/svg" viewBox="0 0 108 108">
  <defs>
    <style>
      .cls-1 {
        fill: #4a4a49;
      }

      .cls-2 {
        fill: #da632c;
      }
    </style>
  </defs>
  <path class="cls-1" d="M18.67,99.07l17.54-6.02c-2.02-26.14-2.02-52.37,0-78.51l-17.54-6.02c-2.34,30.14-2.34,60.4,0,90.55Z"/>
  <path class="cls-2" d="M38.25,92.35c5.85-2.01,11.7-4.01,17.54-6.02-.84-10.94-1.27-21.9-1.28-32.88-6.65-12.19-11.89-25.05-16.26-38.22-1.98,25.67-1.98,51.44,0,77.12Z"/>
  <path class="cls-2" d="M73.7,27.4c-.68,8.88-1.03,17.77-1.04,26.67,5.24,7.56,11.21,14.55,18.58,20.1-1.03-13.58-1.03-27.18,0-40.76-5.85-2.01-11.7-4.01-17.54-6.02Z"/>
  <path class="cls-1" d="M55.79,21.25c-5.85-2.01-11.7-4.01-17.54-6.02,4.38,13.17,9.62,26.03,16.26,38.22,5.35,9.63,11.53,18.78,19.19,26.74,5.85-2.01,11.7-4.01,17.54-6.02-7.37-5.56-13.34-12.54-18.58-20.1-6.92-10.24-12.32-21.35-16.88-32.82Z"/>
</svg>